%TF.GenerationSoftware,KiCad,Pcbnew,6.99.0-1.20220203gita970acd.fc35*%
%TF.CreationDate,2022-02-04T17:37:59+01:00*%
%TF.ProjectId,b34rclaw,62333472-636c-4617-972e-6b696361645f,v1.0.0*%
%TF.SameCoordinates,Original*%
%TF.FileFunction,Legend,Top*%
%TF.FilePolarity,Positive*%
%FSLAX46Y46*%
G04 Gerber Fmt 4.6, Leading zero omitted, Abs format (unit mm)*
G04 Created by KiCad (PCBNEW 6.99.0-1.20220203gita970acd.fc35) date 2022-02-04 17:37:59*
%MOMM*%
%LPD*%
G01*
G04 APERTURE LIST*
%ADD10C,0.300000*%
%ADD11C,0.150000*%
%ADD12R,1.752600X1.752600*%
%ADD13C,1.752600*%
G04 APERTURE END LIST*
D10*
X201314268Y-149098571D02*
X201314268Y-146955714D01*
X204169220Y-147598571D02*
X202695696Y-148027142D01*
X202695696Y-148027142D02*
X204169220Y-148455714D01*
X205090172Y-148027142D02*
X206563696Y-148027142D01*
X207484648Y-148027142D02*
X208958172Y-148027142D01*
X210855333Y-147098571D02*
X212144667Y-148598571D01*
X212144667Y-147098571D02*
X210855333Y-148598571D01*
X214041828Y-148027142D02*
X215515352Y-148027142D01*
X216436304Y-148027142D02*
X217909828Y-148027142D01*
X218830780Y-147598571D02*
X220304304Y-148027142D01*
X220304304Y-148027142D02*
X218830780Y-148455714D01*
X221685732Y-149098571D02*
X221685732Y-146955714D01*
D11*
%TO.C,MCU1*%
X254923020Y-104167704D02*
X254656353Y-103786752D01*
X254465877Y-104167704D02*
X254465877Y-103367704D01*
X254465877Y-103367704D02*
X254770639Y-103367704D01*
X254770639Y-103367704D02*
X254846829Y-103405800D01*
X254846829Y-103405800D02*
X254884924Y-103443895D01*
X254884924Y-103443895D02*
X254923020Y-103520085D01*
X254923020Y-103520085D02*
X254923020Y-103634371D01*
X254923020Y-103634371D02*
X254884924Y-103710561D01*
X254884924Y-103710561D02*
X254846829Y-103748657D01*
X254846829Y-103748657D02*
X254770639Y-103786752D01*
X254770639Y-103786752D02*
X254465877Y-103786752D01*
X255227781Y-103939133D02*
X255608734Y-103939133D01*
X255151591Y-104167704D02*
X255418258Y-103367704D01*
X255418258Y-103367704D02*
X255684924Y-104167704D01*
X255875400Y-103367704D02*
X256065876Y-104167704D01*
X256065876Y-104167704D02*
X256218257Y-103596276D01*
X256218257Y-103596276D02*
X256370638Y-104167704D01*
X256370638Y-104167704D02*
X256561115Y-103367704D01*
X256720000Y-104390000D02*
X254180000Y-104390000D01*
X256720000Y-104390000D02*
X256720000Y-106930000D01*
X254180000Y-104390000D02*
X254180000Y-106930000D01*
X256720000Y-106930000D02*
X254180000Y-106930000D01*
%TD*%
D12*
%TO.C,MCU1*%
X255449999Y-105659999D03*
D13*
X255450000Y-108200000D03*
X255450000Y-110740000D03*
X255450000Y-113280000D03*
X255450000Y-115820000D03*
X255450000Y-118360000D03*
X255450000Y-120900000D03*
X255450000Y-123440000D03*
X255450000Y-125980000D03*
X255450000Y-128520000D03*
X255450000Y-131060000D03*
X255450000Y-133600000D03*
X270690000Y-105660000D03*
X270690000Y-108200000D03*
X270690000Y-110740000D03*
X270690000Y-113280000D03*
X270690000Y-115820000D03*
X270690000Y-118360000D03*
X270690000Y-120900000D03*
X270690000Y-123440000D03*
X270690000Y-125980000D03*
X270690000Y-128520000D03*
X270690000Y-131060000D03*
X270690000Y-133600000D03*
%TD*%
M02*
