M48
; DRILL file {KiCad 6.99.0-1.20220203gita970acd.fc35} date Fri 04 Feb 2022 05:37:56 PM CET
; FORMAT={-:-/ absolute / inch / decimal}
; #@! TF.CreationDate,2022-02-04T17:37:56+01:00
; #@! TF.GenerationSoftware,Kicad,Pcbnew,6.99.0-1.20220203gita970acd.fc35
; #@! TF.FileFunction,NonPlated,1,2,NPTH
FMAT,2
INCH
; #@! TA.AperFunction,NonPlated,NPTH,ComponentDrill
T1C0.0591
; #@! TA.AperFunction,NonPlated,NPTH,ComponentDrill
T2C0.0670
; #@! TA.AperFunction,NonPlated,NPTH,ComponentDrill
T3C0.1350
%
G90
G05
T1
X5.9353Y-3.8925
X5.9832Y-4.1639
T2
X5.8695Y-4.7257
X5.9447Y-5.1522
X6.0199Y-5.5787
X6.296Y-4.6505
X6.3712Y-5.077
X6.4464Y-5.5035
X6.7169Y-3.9655
X6.7546Y-4.3969
X6.7924Y-4.8284
X7.1483Y-3.9278
X7.1861Y-4.3592
X7.2238Y-4.7906
X7.598Y-3.6752
X7.598Y-4.1083
X7.598Y-4.5413
X8.0311Y-3.6752
X8.0311Y-4.1083
X8.0311Y-4.5413
X8.4248Y-3.9114
X8.4248Y-4.3445
X8.4248Y-4.7776
X8.8579Y-3.9114
X8.8579Y-4.3445
X8.8579Y-4.7776
X9.2516Y-4.1476
X9.2516Y-4.5807
X9.2516Y-5.0138
X9.6846Y-4.1476
X9.6846Y-4.5807
X9.6846Y-5.0138
X10.0587Y-5.9783
X10.0587Y-6.4114
X10.4917Y-5.9783
X10.4917Y-6.4114
T3
X6.0828Y-4.6881
X6.158Y-5.1146
X6.2332Y-5.5411
X6.9326Y-3.9467
X6.9704Y-4.3781
X7.0081Y-4.8095
X7.8146Y-3.6752
X7.8146Y-4.1083
X7.8146Y-4.5413
X8.6413Y-3.9114
X8.6413Y-4.3445
X8.6413Y-4.7776
X9.4681Y-4.1476
X9.4681Y-4.5807
X9.4681Y-5.0138
X10.0587Y-6.1949
X10.4917Y-6.1949
T0
M30
