%TF.GenerationSoftware,KiCad,Pcbnew,6.99.0-1.20220203gita970acd.fc35*%
%TF.CreationDate,2022-02-04T17:37:59+01:00*%
%TF.ProjectId,b34rclaw,62333472-636c-4617-972e-6b696361645f,v1.0.0*%
%TF.SameCoordinates,Original*%
%TF.FileFunction,Legend,Bot*%
%TF.FilePolarity,Positive*%
%FSLAX46Y46*%
G04 Gerber Fmt 4.6, Leading zero omitted, Abs format (unit mm)*
G04 Created by KiCad (PCBNEW 6.99.0-1.20220203gita970acd.fc35) date 2022-02-04 17:37:59*
%MOMM*%
%LPD*%
G01*
G04 APERTURE LIST*
%ADD10C,0.300000*%
%ADD11R,1.752600X1.752600*%
%ADD12C,1.752600*%
G04 APERTURE END LIST*
D10*
X201324268Y-149078571D02*
X201324268Y-146935714D01*
X204179220Y-147578571D02*
X202705696Y-148007142D01*
X202705696Y-148007142D02*
X204179220Y-148435714D01*
X205100172Y-148007142D02*
X206573696Y-148007142D01*
X207494648Y-148007142D02*
X208968172Y-148007142D01*
X210865333Y-147078571D02*
X212154667Y-148578571D01*
X212154667Y-147078571D02*
X210865333Y-148578571D01*
X214051828Y-148007142D02*
X215525352Y-148007142D01*
X216446304Y-148007142D02*
X217919828Y-148007142D01*
X218840780Y-147578571D02*
X220314304Y-148007142D01*
X220314304Y-148007142D02*
X218840780Y-148435714D01*
X221695732Y-149078571D02*
X221695732Y-146935714D01*
D11*
%TO.C,MCU1*%
X255449999Y-105659999D03*
D12*
X255450000Y-108200000D03*
X255450000Y-110740000D03*
X255450000Y-113280000D03*
X255450000Y-115820000D03*
X255450000Y-118360000D03*
X255450000Y-120900000D03*
X255450000Y-123440000D03*
X255450000Y-125980000D03*
X255450000Y-128520000D03*
X255450000Y-131060000D03*
X255450000Y-133600000D03*
X270690000Y-105660000D03*
X270690000Y-108200000D03*
X270690000Y-110740000D03*
X270690000Y-113280000D03*
X270690000Y-115820000D03*
X270690000Y-118360000D03*
X270690000Y-120900000D03*
X270690000Y-123440000D03*
X270690000Y-125980000D03*
X270690000Y-128520000D03*
X270690000Y-131060000D03*
X270690000Y-133600000D03*
%TD*%
M02*
