M48
; DRILL file {KiCad 6.99.0-1.20220203gita970acd.fc35} date Fri 04 Feb 2022 05:37:56 PM CET
; FORMAT={-:-/ absolute / inch / decimal}
; #@! TF.CreationDate,2022-02-04T17:37:56+01:00
; #@! TF.GenerationSoftware,Kicad,Pcbnew,6.99.0-1.20220203gita970acd.fc35
; #@! TF.FileFunction,Plated,1,2,PTH
FMAT,2
INCH
; #@! TA.AperFunction,Plated,PTH,ViaDrill
T1C0.0157
; #@! TA.AperFunction,Plated,PTH,ComponentDrill
T2C0.0354
; #@! TA.AperFunction,Plated,PTH,ComponentDrill
T3C0.0430
; #@! TA.AperFunction,Plated,PTH,ComponentDrill
T4C0.0500
%
G90
G05
T1
X6.3568Y-3.9348
X6.3781Y-4.1779
X7.0256Y-3.7189
X10.3508Y-4.3252
T3
X10.0571Y-4.1598
X10.0571Y-4.2598
X10.0571Y-4.3598
X10.0571Y-4.4598
X10.0571Y-4.5598
X10.0571Y-4.6598
X10.0571Y-4.7598
X10.0571Y-4.8598
X10.0571Y-4.9598
X10.0571Y-5.0598
X10.0571Y-5.1598
X10.0571Y-5.2598
X10.6571Y-4.1598
X10.6571Y-4.2598
X10.6571Y-4.3598
X10.6571Y-4.4598
X10.6571Y-4.5598
X10.6571Y-4.6598
X10.6571Y-4.7598
X10.6571Y-4.8598
X10.6571Y-4.9598
X10.6571Y-5.0598
X10.6571Y-5.1598
X10.6571Y-5.2598
T4
X5.863Y-4.5749
X5.9382Y-5.0014
X6.0425Y-4.4593
X6.0425Y-4.4593
X6.0653Y-5.7226
X6.1177Y-4.8858
X6.1177Y-4.8858
X6.2507Y-4.5066
X6.2735Y-5.7698
X6.2735Y-5.7698
X6.3259Y-4.9331
X6.453Y-5.6542
X6.7235Y-3.8148
X6.7612Y-4.2462
X6.825Y-4.9757
X6.9124Y-3.7153
X6.9124Y-3.7153
X6.9501Y-4.1467
X6.9501Y-4.1467
X7.0283Y-5.0409
X7.0283Y-5.0409
X7.1157Y-3.7805
X7.1534Y-4.2119
X7.2172Y-4.9414
X7.6177Y-3.5256
X7.6177Y-3.9587
X7.6177Y-4.6909
X7.8146Y-3.4429
X7.8146Y-3.4429
X7.8146Y-3.876
X7.8146Y-3.876
X7.8146Y-4.7736
X7.8146Y-4.7736
X8.0114Y-3.5256
X8.0114Y-3.9587
X8.0114Y-4.6909
X8.4445Y-3.7618
X8.4445Y-4.1949
X8.4445Y-4.9272
X8.6413Y-3.6791
X8.6413Y-3.6791
X8.6413Y-4.1122
X8.6413Y-4.1122
X8.6413Y-5.0098
X8.6413Y-5.0098
X8.8382Y-3.7618
X8.8382Y-4.1949
X8.8382Y-4.9272
X9.2713Y-3.998
X9.2713Y-4.4311
X9.2713Y-5.1634
X9.4681Y-3.9154
X9.4681Y-3.9154
X9.4681Y-4.3484
X9.4681Y-4.3484
X9.4681Y-5.2461
X9.4681Y-5.2461
X9.665Y-3.998
X9.665Y-4.4311
X9.665Y-5.1634
X9.8264Y-6.1949
X9.8264Y-6.1949
X9.9091Y-5.998
X9.9091Y-6.3917
X10.6413Y-5.998
X10.6413Y-6.3917
X10.724Y-6.1949
X10.724Y-6.1949
T2
G00X5.8551Y-3.9586
M15
G01X5.8592Y-3.9819
M16
G05
G00X5.8756Y-4.0749
M15
G01X5.8797Y-4.0982
M16
G05
G00X5.9029Y-4.23
M15
G01X5.907Y-4.2533
M16
G05
G00X5.9104Y-4.2727
M15
G01X5.9145Y-4.2959
M16
G05
G00X6.0334Y-3.9272
M15
G01X6.0375Y-3.9504
M16
G05
G00X6.0539Y-4.0435
M15
G01X6.058Y-4.0668
M16
G05
G00X6.0813Y-4.1986
M15
G01X6.0854Y-4.2218
M16
G05
G00X6.0888Y-4.2412
M15
G01X6.0929Y-4.2645
M16
G05
T0
M30
