%TF.GenerationSoftware,KiCad,Pcbnew,6.99.0*%
%TF.CreationDate,2021-12-29T22:27:03+01:00*%
%TF.ProjectId,shoggotwide,73686f67-676f-4747-9769-64652e6b6963,v1.0.0*%
%TF.SameCoordinates,Original*%
%TF.FileFunction,Soldermask,Top*%
%TF.FilePolarity,Negative*%
%FSLAX46Y46*%
G04 Gerber Fmt 4.6, Leading zero omitted, Abs format (unit mm)*
G04 Created by KiCad (PCBNEW 6.99.0) date 2021-12-29 22:27:03*
%MOMM*%
%LPD*%
G01*
G04 APERTURE LIST*
G04 Aperture macros list*
%AMRoundRect*
0 Rectangle with rounded corners*
0 $1 Rounding radius*
0 $2 $3 $4 $5 $6 $7 $8 $9 X,Y pos of 4 corners*
0 Add a 4 corners polygon primitive as box body*
4,1,4,$2,$3,$4,$5,$6,$7,$8,$9,$2,$3,0*
0 Add four circle primitives for the rounded corners*
1,1,$1+$1,$2,$3*
1,1,$1+$1,$4,$5*
1,1,$1+$1,$6,$7*
1,1,$1+$1,$8,$9*
0 Add four rect primitives between the rounded corners*
20,1,$1+$1,$2,$3,$4,$5,0*
20,1,$1+$1,$4,$5,$6,$7,0*
20,1,$1+$1,$6,$7,$8,$9,0*
20,1,$1+$1,$8,$9,$2,$3,0*%
%AMHorizOval*
0 Thick line with rounded ends*
0 $1 width*
0 $2 $3 position (X,Y) of the first rounded end (center of the circle)*
0 $4 $5 position (X,Y) of the second rounded end (center of the circle)*
0 Add line between two ends*
20,1,$1,$2,$3,$4,$5,0*
0 Add two circle primitives to create the rounded ends*
1,1,$1,$2,$3*
1,1,$1,$4,$5*%
G04 Aperture macros list end*
%ADD10RoundRect,0.050000X0.626347X-0.848640X0.469467X0.944511X-0.626347X0.848640X-0.469467X-0.944511X0*%
%ADD11C,1.801800*%
%ADD12C,3.529000*%
%ADD13C,2.132000*%
%ADD14RoundRect,0.050000X-0.876300X0.876300X-0.876300X-0.876300X0.876300X-0.876300X0.876300X0.876300X0*%
%ADD15C,1.852600*%
%ADD16C,1.600000*%
%ADD17HorizOval,1.700000X-0.052094X0.295442X0.052094X-0.295442X0*%
G04 APERTURE END LIST*
D10*
%TO.C,B1*%
X162003223Y-106119442D03*
X161462857Y-99943035D03*
X165689143Y-105796965D03*
X165148777Y-99620558D03*
%TD*%
D11*
%TO.C,S12*%
X213990000Y-99350000D03*
D12*
X219490000Y-99350000D03*
D11*
X224990000Y-99350000D03*
D13*
X214490000Y-95550000D03*
X224490000Y-95550000D03*
X219490000Y-93450000D03*
X219490000Y-93450000D03*
%TD*%
D11*
%TO.C,S13*%
X245990000Y-127350000D03*
D12*
X240490000Y-127350000D03*
D11*
X234990000Y-127350000D03*
D13*
X245490000Y-131150000D03*
X235490000Y-131150000D03*
X240490000Y-133250000D03*
X240490000Y-133250000D03*
%TD*%
D11*
%TO.C,S7*%
X203990000Y-115350000D03*
D12*
X198490000Y-115350000D03*
D11*
X192990000Y-115350000D03*
D13*
X203490000Y-119150000D03*
X193490000Y-119150000D03*
X198490000Y-121250000D03*
X198490000Y-121250000D03*
%TD*%
D11*
%TO.C,S2*%
X150996526Y-130865402D03*
D12*
X156412969Y-129910337D03*
D11*
X161829412Y-128955272D03*
D13*
X150829067Y-127036308D03*
X160677145Y-125299827D03*
X155388445Y-124099971D03*
X155388445Y-124099971D03*
%TD*%
D11*
%TO.C,S3*%
X149086396Y-120032517D03*
D12*
X154502839Y-119077452D03*
D11*
X159919282Y-118122387D03*
D13*
X148918937Y-116203423D03*
X158767015Y-114466942D03*
X153478315Y-113267086D03*
X153478315Y-113267086D03*
%TD*%
D11*
%TO.C,S11*%
X213990000Y-110350000D03*
D12*
X219490000Y-110350000D03*
D11*
X224990000Y-110350000D03*
D13*
X214490000Y-106550000D03*
X224490000Y-106550000D03*
X219490000Y-104450000D03*
X219490000Y-104450000D03*
%TD*%
D11*
%TO.C,S1*%
X163739542Y-139788157D03*
D12*
X158323099Y-140743222D03*
D11*
X152906656Y-141698287D03*
D13*
X163907001Y-143617251D03*
X154058923Y-145353732D03*
X159347623Y-146553588D03*
X159347623Y-146553588D03*
%TD*%
D11*
%TO.C,S6*%
X170609193Y-100724317D03*
D12*
X176088264Y-100244960D03*
D11*
X181567335Y-99765603D03*
D13*
X170776099Y-96895199D03*
X180738046Y-96023641D03*
X175574045Y-94367411D03*
X175574045Y-94367411D03*
%TD*%
D11*
%TO.C,S4*%
X183484761Y-121681887D03*
D12*
X178005690Y-122161244D03*
D11*
X172526619Y-122640601D03*
D13*
X183317855Y-125511005D03*
X173355908Y-126382563D03*
X178519909Y-128038793D03*
X178519909Y-128038793D03*
%TD*%
D14*
%TO.C,MCU1*%
X255450000Y-105660000D03*
D15*
X255450000Y-108200000D03*
X255450000Y-110740000D03*
X255450000Y-113280000D03*
X255450000Y-115820000D03*
X255450000Y-118360000D03*
X255450000Y-120900000D03*
X255450000Y-123440000D03*
X255450000Y-125980000D03*
X255450000Y-128520000D03*
X255450000Y-131060000D03*
X255450000Y-133600000D03*
X270690000Y-105660000D03*
X270690000Y-108200000D03*
X270690000Y-110740000D03*
X270690000Y-113280000D03*
X270690000Y-115820000D03*
X270690000Y-118360000D03*
X270690000Y-120900000D03*
X270690000Y-123440000D03*
X270690000Y-125980000D03*
X270690000Y-128520000D03*
X270690000Y-131060000D03*
X270690000Y-133600000D03*
%TD*%
D11*
%TO.C,S9*%
X192990000Y-93350000D03*
D12*
X198490000Y-93350000D03*
D11*
X203990000Y-93350000D03*
D13*
X193490000Y-89550000D03*
X203490000Y-89550000D03*
X198490000Y-87450000D03*
X198490000Y-87450000D03*
%TD*%
D11*
%TO.C,S10*%
X224990000Y-121350000D03*
D12*
X219490000Y-121350000D03*
D11*
X213990000Y-121350000D03*
D13*
X224490000Y-125150000D03*
X214490000Y-125150000D03*
X219490000Y-127250000D03*
X219490000Y-127250000D03*
%TD*%
D11*
%TO.C,S15*%
X234990000Y-105350000D03*
D12*
X240490000Y-105350000D03*
D11*
X245990000Y-105350000D03*
D13*
X235490000Y-101550000D03*
X245490000Y-101550000D03*
X240490000Y-99450000D03*
X240490000Y-99450000D03*
%TD*%
D11*
%TO.C,S17*%
X266490000Y-151850000D03*
D12*
X266490000Y-157350000D03*
D11*
X266490000Y-162850000D03*
D13*
X270290000Y-152350000D03*
X270290000Y-162350000D03*
X272390000Y-157350000D03*
X272390000Y-157350000D03*
%TD*%
D11*
%TO.C,S16*%
X255490000Y-162850000D03*
D12*
X255490000Y-157350000D03*
D11*
X255490000Y-151850000D03*
D13*
X251690000Y-162350000D03*
X251690000Y-152350000D03*
X249590000Y-157350000D03*
X249590000Y-157350000D03*
%TD*%
D11*
%TO.C,S5*%
X171567906Y-111682459D03*
D12*
X177046977Y-111203102D03*
D11*
X182526048Y-110723745D03*
D13*
X171734812Y-107853341D03*
X181696759Y-106981783D03*
X176532758Y-105325553D03*
X176532758Y-105325553D03*
%TD*%
D11*
%TO.C,S8*%
X192990000Y-104350000D03*
D12*
X198490000Y-104350000D03*
D11*
X203990000Y-104350000D03*
D13*
X193490000Y-100550000D03*
X203490000Y-100550000D03*
X198490000Y-98450000D03*
X198490000Y-98450000D03*
%TD*%
D11*
%TO.C,S14*%
X234990000Y-116350000D03*
D12*
X240490000Y-116350000D03*
D11*
X245990000Y-116350000D03*
D13*
X235490000Y-112550000D03*
X245490000Y-112550000D03*
X240490000Y-110450000D03*
X240490000Y-110450000D03*
%TD*%
D16*
%TO.C,REF\u002A\u002A*%
X150757813Y-98869528D03*
X151973350Y-105763182D03*
D17*
X150177143Y-108821554D03*
X154707258Y-108022773D03*
X149986130Y-107738266D03*
X154516245Y-106939484D03*
X149291537Y-103799035D03*
X153821653Y-103000253D03*
X148770593Y-100844611D03*
X153300708Y-100045830D03*
%TD*%
M02*
